HIERARCHY
ROOT root
{
	OFFSET 0.000000 0.000000 0.000000
	CHANNELS 6 Xposition Yposition Zposition Zrotation Yrotation Xrotation
	JOINT lhip
	{
		OFFSET 0.058581 -0.082280 -0.017664
		CHANNELS 3 Zrotation Yrotation Xrotation
		JOINT lknee
		{
			OFFSET 0.043451 -0.386469 0.008037
			CHANNELS 3 Zrotation Yrotation Xrotation
			JOINT lankle
			{
				OFFSET -0.014790 -0.426874 -0.037428
				CHANNELS 3 Zrotation Yrotation Xrotation
				JOINT ltoe
				{
					OFFSET 0.041054 -0.060286 0.122042
					CHANNELS 3 Zrotation Yrotation Xrotation
					End Site
					{
						OFFSET 0.000000 0.000000 0.000000
					}
				}
			}
		}
	}
	JOINT rhip
	{
		OFFSET -0.060310 -0.090513 -0.013543
		CHANNELS 3 Zrotation Yrotation Xrotation
		JOINT rknee
		{
			OFFSET -0.043257 -0.383688 -0.004843
			CHANNELS 3 Zrotation Yrotation Xrotation
			JOINT rankle
			{
				OFFSET 0.019056 -0.420046 -0.034562
				CHANNELS 3 Zrotation Yrotation Xrotation
				JOINT rtoe
				{
					OFFSET -0.034840 -0.062106 0.130323
					CHANNELS 3 Zrotation Yrotation Xrotation
					End Site
					{
						OFFSET 0.000000 0.000000 0.000000
					}
				}
			}
		}
	}
	JOINT lowerback
	{
		OFFSET 0.004439 0.124404 -0.038385
		CHANNELS 3 Zrotation Yrotation Xrotation
		JOINT upperback
		{
			OFFSET 0.004488 0.137956 0.026820
			CHANNELS 3 Zrotation Yrotation Xrotation
			JOINT chest
			{
				OFFSET -0.002265 0.056032 0.002855
				CHANNELS 3 Zrotation Yrotation Xrotation
				JOINT lowerneck
				{
					OFFSET -0.013390 0.211636 -0.033468
					CHANNELS 3 Zrotation Yrotation Xrotation
					JOINT upperneck
					{
						OFFSET 0.010113 0.088937 0.050410
						CHANNELS 3 Zrotation Yrotation Xrotation
						End Site
						{
							OFFSET 0.000000 0.000000 0.000000
						}
					}
				}
				JOINT lclavicle
				{
					OFFSET 0.071702 0.114000 -0.018898
					CHANNELS 3 Zrotation Yrotation Xrotation
					JOINT lshoulder
					{
						OFFSET 0.122921 0.045205 -0.019046
						CHANNELS 3 Zrotation Yrotation Xrotation
						JOINT lelbow
						{
							OFFSET 0.255332 -0.015649 -0.022946
							CHANNELS 3 Zrotation Yrotation Xrotation
							JOINT lwrist
							{
								OFFSET 0.265709 0.012698 -0.007375
								CHANNELS 3 Zrotation Yrotation Xrotation
								End Site
								{
									OFFSET 0.000000 0.000000 0.000000
								}
							}
						}
					}
				}
				JOINT rclavicle
				{
					OFFSET -0.082954 0.112472 -0.023707
					CHANNELS 3 Zrotation Yrotation Xrotation
					JOINT rshoulder
					{
						OFFSET -0.113228 0.046853 -0.008472
						CHANNELS 3 Zrotation Yrotation Xrotation
						JOINT relbow
						{
							OFFSET -0.260127 -0.014369 -0.031269
							CHANNELS 3 Zrotation Yrotation Xrotation
							JOINT rwrist
							{
								OFFSET -0.269108 0.006794 -0.006027
								CHANNELS 3 Zrotation Yrotation Xrotation
								End Site
								{
									OFFSET 0.000000 0.000000 0.000000
								}
							}
						}
					}
				}
			}
		}
	}
}
MOTION
Frames: 14
Frame Time: 0.033333
-0.949370 -0.056013 1.003797 114.972127 4.154184 83.983835 0.945178 6.414692 16.402466 -5.569114 2.271387 -2.945880 1.532032 10.147080 -12.449759 0.000000 -0.000000 0.000000 5.297263 4.593338 -13.218390 4.911511 -5.333206 -0.053611 5.040448 -1.910317 -9.475040 0.000000 -0.000000 0.000000 0.981046 -3.571778 2.560641 -0.174105 -0.720168 9.231851 -2.242841 1.049787 2.991572 4.146032 2.179943 3.082607 0.958136 -4.453617 3.467787 -27.591031 0.522794 1.764589 -56.546261 -10.614198 12.055458 8.311854 -16.695017 -1.107495 -11.575277 -15.273077 -8.363655 27.077386 1.285982 5.315527 57.222462 10.236732 15.454464 -9.918820 25.377673 3.172045 14.843908 11.590331 -9.825302 
-0.940043 -0.050414 1.001988 115.699146 4.060092 83.889538 0.861589 6.309593 16.776561 -5.451517 1.595117 -2.022857 1.367224 10.451327 -13.265614 0.000000 -0.000000 0.000000 5.170227 4.767034 -13.396856 4.834882 -5.188897 -0.061436 5.224148 -2.137917 -9.594391 0.000000 -0.000000 0.000000 1.129503 -3.817892 2.521721 -0.210748 -0.606591 9.228186 -2.243182 0.960533 3.347818 4.132848 1.905363 2.610098 0.934624 -4.644306 3.582136 -27.458518 0.323884 1.777987 -56.770737 -10.548781 11.953293 8.316401 -16.682476 -1.130592 -11.337182 -15.118150 -8.690189 26.965137 1.422971 5.219002 57.336164 10.275393 15.431636 -10.123348 25.566334 2.881945 14.820767 11.542158 -9.891626 
-0.929690 -0.044617 1.000073 116.189839 3.939941 83.784780 0.740140 6.157584 17.338826 -5.378320 1.094104 -1.282539 1.456060 10.768558 -14.061624 0.000000 -0.000000 0.000000 4.985179 4.974123 -13.520683 4.782179 -4.860143 0.123837 5.315180 -2.069285 -9.549324 0.000000 -0.000000 0.000000 1.244426 -3.892968 2.618720 -0.208487 -0.524560 9.177045 -2.249746 1.061609 3.448145 4.213551 1.623941 2.437250 0.865029 -4.892846 3.485123 -27.510355 0.464517 1.636854 -56.826092 -10.522844 11.998642 8.206575 -16.680074 -0.754484 -11.162821 -15.204432 -8.675103 26.978337 1.396195 5.000492 57.307067 10.162212 15.428989 -10.219760 25.584744 2.782723 14.793459 11.646980 -9.958558 
-0.915746 -0.037368 0.997721 116.983971 3.720477 83.747555 0.732324 6.170758 18.003841 -5.318632 0.194889 -0.373930 1.437356 10.732779 -14.686337 0.000000 -0.000000 0.000000 4.703136 5.050666 -13.785366 4.581858 -4.510072 0.616370 5.220967 -2.086850 -9.454310 0.000000 -0.000000 0.000000 1.272710 -3.957724 2.683778 -0.109829 -0.379568 9.192535 -2.232023 0.970862 3.410799 4.316323 1.357738 2.313572 0.753937 -5.103665 3.376099 -27.607667 0.610242 1.656819 -56.833460 -10.422709 12.000293 8.284601 -17.055942 -0.541877 -11.381847 -15.164963 -8.804822 26.984202 1.389175 4.901186 57.262991 10.102702 15.386312 -10.348697 25.439250 2.537127 14.551857 11.432481 -9.767754 
-0.906840 -0.033019 0.996526 117.573053 3.618690 83.861766 0.783277 6.070482 18.305125 -5.320390 -0.265029 0.148398 1.250799 10.647874 -14.959945 0.000000 -0.000000 0.000000 4.506702 5.155427 -13.905035 4.397260 -4.339913 0.791509 5.170852 -2.078954 -9.225980 0.000000 -0.000000 0.000000 1.347823 -4.069918 2.509665 -0.078400 -0.425829 9.318371 -2.261987 1.007736 3.409227 4.417731 1.185952 2.211921 0.811418 -5.267239 3.257846 -27.602324 0.698314 1.615836 -56.879975 -10.405664 12.070049 8.278852 -17.179604 -0.518595 -11.143268 -15.179754 -8.881789 27.073856 1.408133 4.870945 57.163619 10.133286 15.346343 -10.420224 25.370930 2.377602 14.665828 11.399651 -9.954270 
-0.894314 -0.027170 0.995261 118.325694 3.444047 84.058147 0.923411 6.089041 18.755499 -5.320320 -1.025819 0.736839 1.030763 10.485292 -15.106403 0.000000 -0.000000 0.000000 4.222376 5.247010 -14.081983 4.221801 -4.037070 1.174194 5.073677 -2.165783 -8.681922 0.000000 -0.000000 0.000000 1.357798 -4.158857 2.346799 0.024443 -0.363699 9.351545 -2.236596 0.952757 3.405460 4.464116 0.913622 2.051081 0.794240 -5.365960 3.132899 -27.684880 0.753950 1.646290 -56.847675 -10.397888 12.104558 8.140482 -17.328026 -0.570965 -10.716830 -15.111743 -9.221511 27.148835 1.386632 4.868491 56.979726 10.133303 15.327331 -10.417498 25.303529 2.258770 14.450668 11.192018 -9.834981 
-0.880717 -0.021054 0.994568 119.159096 3.182556 84.222986 1.078929 6.024111 19.241111 -5.376001 -1.764713 1.457452 0.607844 10.242838 -15.060734 0.000000 -0.000000 0.000000 3.885580 5.161826 -13.964183 3.956696 -3.636185 1.681548 4.559729 -2.279179 -7.529543 0.000000 -0.000000 0.000000 1.356709 -4.307483 2.118247 0.051141 -0.434106 9.546232 -2.298131 1.005990 3.357785 4.528417 0.689977 1.939333 0.852841 -5.476556 2.988291 -27.718243 0.780953 1.770127 -56.669586 -10.482669 12.055335 8.279804 -17.582965 -0.352063 -11.221062 -15.315379 -10.158231 27.225928 1.351065 4.854447 56.965973 10.171014 15.307281 -10.543307 25.127165 2.208415 14.614409 11.255943 -10.035294 
-0.866344 -0.014430 0.994156 120.022894 2.914976 84.478295 1.308762 6.121826 19.516737 -5.475279 -2.459777 2.470440 0.196760 9.823819 -14.853664 0.000000 -0.000000 0.000000 3.495066 4.872549 -13.815693 4.007069 -3.963822 2.355646 4.334431 -2.776402 -6.353848 0.000000 -0.000000 0.000000 1.424117 -4.352280 1.809712 0.074049 -0.450918 9.750593 -2.332213 0.879770 3.264797 4.594694 0.401556 1.762598 0.759010 -5.339123 2.930169 -27.867106 0.705097 1.919561 -56.567278 -10.466117 12.008113 8.219730 -17.627957 -0.168821 -10.778555 -15.012079 -9.624793 27.278133 1.381499 4.888474 56.899904 10.030604 15.266293 -10.372205 25.182814 2.012889 14.419327 11.378257 -10.542216 
-0.850822 -0.007789 0.994262 120.620545 2.650115 84.854113 1.310662 6.107284 19.669367 -5.336380 -2.793535 3.483904 0.016045 9.618769 -14.512509 0.000000 -0.000000 0.000000 3.394481 4.460334 -13.519097 4.042456 -4.138748 3.076082 3.747136 -3.198061 -5.275927 0.000000 -0.000000 0.000000 1.488816 -4.237658 1.251277 0.153896 -0.505836 9.969432 -2.382725 0.879022 3.181647 4.654259 0.158374 1.726733 0.726088 -5.369420 3.035028 -28.119811 0.641736 2.013972 -56.336195 -10.508226 11.698084 8.170573 -17.123759 -0.347951 -11.334585 -15.073321 -9.021912 27.552172 1.455790 4.964735 56.654499 9.900401 15.035614 -10.870529 25.023166 1.706122 15.117656 11.417233 -9.971464 
-0.830249 0.000157 0.996483 121.184651 2.654635 85.245438 1.577356 5.956490 19.717569 -5.154783 -3.016124 5.091377 -0.603478 9.688315 -13.405167 0.000000 -0.000000 0.000000 3.431651 4.369030 -12.895133 4.239464 -4.660995 3.646775 3.352159 -3.660535 -4.104076 0.000000 -0.000000 0.000000 1.790014 -4.275351 0.775636 0.305305 -0.420914 10.137879 -2.376687 0.921620 3.054084 4.759628 -0.171724 1.645679 0.775115 -5.251641 3.062515 -28.465012 0.657207 2.110419 -56.157797 -10.406431 11.672982 8.197277 -16.929869 -0.436504 -11.182888 -14.999665 -9.012212 27.691678 1.584226 5.172924 56.349476 9.942925 14.922780 -10.556161 24.792911 1.600756 14.736118 11.405260 -10.521646 
-0.812937 0.006940 0.999187 121.607967 2.561705 85.416759 1.816983 6.049998 19.727666 -5.006895 -3.147287 6.694430 -0.809459 9.435331 -12.082393 0.000000 -0.000000 0.000000 3.261305 3.877225 -12.107690 4.639805 -5.486719 4.090285 2.689791 -4.283738 -3.969926 0.000000 -0.000000 0.000000 2.022064 -4.284749 0.418691 0.307727 -0.537196 10.416672 -2.432235 0.962803 2.930660 4.888570 -0.266409 1.637452 0.795198 -5.047083 3.131653 -28.546481 0.551871 2.314070 -56.088717 -10.217949 11.417596 8.262437 -16.897053 -0.515601 -11.644591 -14.821136 -9.065044 27.681277 1.810883 5.295044 56.362513 9.982445 14.649054 -10.772021 24.539986 1.580773 15.388527 11.446817 -10.218387 
-0.794916 0.013865 1.001540 122.021955 2.408343 85.681889 2.042355 6.044912 19.543247 -4.957742 -3.216832 8.538796 -1.847447 9.120902 -10.552528 0.000000 -0.000000 0.000000 3.158235 3.256965 -11.027066 4.794381 -6.427027 4.053178 2.463960 -4.325855 -3.576607 0.000000 -0.000000 0.000000 2.221558 -4.082663 0.002780 0.309452 -0.704507 10.653437 -2.405148 0.933327 2.742745 4.858746 -0.376489 1.611820 0.873533 -4.886668 3.050467 -28.616078 0.373955 2.532072 -55.959005 -9.877046 11.208829 8.220198 -17.251814 -0.582558 -11.950331 -15.159725 -8.797818 27.627837 1.835073 5.412034 56.238213 9.823189 14.197523 -10.867430 24.986818 1.860168 15.904234 11.435536 -9.919581 
-0.776217 0.021152 1.003375 121.956042 2.204308 85.832765 1.922334 5.550852 19.451512 -5.010355 -2.518039 10.426591 -1.838964 9.434714 -8.954868 0.000000 -0.000000 0.000000 3.154099 2.874404 -9.839435 5.024647 -6.499918 4.016429 2.573836 -4.159293 -2.804279 0.000000 -0.000000 0.000000 2.606993 -3.683417 -0.455199 0.285094 -0.688880 10.864237 -2.562208 0.984641 2.695873 4.741456 -0.451893 1.562341 0.803687 -4.714723 3.137616 -28.781397 0.269176 2.581785 -55.754091 -9.580292 11.247672 8.326490 -17.422676 -0.727333 -12.214420 -15.254472 -8.672527 27.748342 2.007185 5.567292 56.028516 9.553982 14.224059 -11.235873 25.410435 1.531431 15.857419 11.630909 -9.984420 
-0.758251 0.028367 1.004634 121.965640 1.710803 86.253604 1.884291 6.082873 18.483606 -5.147935 -2.437284 13.332813 -1.722311 9.035745 -7.447634 0.000000 -0.000000 0.000000 2.690402 2.666615 -9.477653 5.357524 -6.367054 4.763088 2.446165 -3.538733 -2.473404 0.000000 -0.000000 0.000000 2.671200 -3.567380 -1.128590 0.285468 -0.579554 11.057579 -2.681378 1.024427 2.583176 4.624652 -0.291586 1.520050 0.601522 -4.474007 3.172897 -29.031434 0.446968 2.585910 -55.438098 -9.348353 11.150634 8.439706 -17.845006 -0.911309 -12.276313 -14.732964 -8.714532 27.973698 1.933277 5.782829 55.483189 9.743287 14.050910 -10.962716 25.743123 1.776016 15.843349 11.534871 -10.179208 
